<?xml version="1.0" standalone="no"?>
<!DOCTYPE svg PUBLIC "-//W3C//DTD SVG 20010904//EN"
 "http://www.w3.org/TR/2001/REC-SVG-20010904/DTD/svg10.dtd">
<svg version="1.0" xmlns="http://www.w3.org/2000/svg"
 width="1430.000000pt" height="1430.000000pt" viewBox="0 0 1430.000000 1430.000000"
 preserveAspectRatio="xMidYMid meet">
<metadata>
Created by potrace 1.11, written by Peter Selinger 2001-2013
</metadata>
<g transform="translate(0.000000,1430.000000) scale(0.100000,-0.100000)"
fill="#000000" stroke="none">
<path d="M3083 14250 c-338 -33 -619 -125 -865 -282 -118 -76 -122 -52 37
-247 37 -46 127 -146 149 -166 96 -88 271 -384 316 -535 12 -41 34 -95 48
-120 41 -73 61 -116 92 -200 51 -138 113 -248 202 -354 62 -74 87 -124 128
-253 27 -85 41 -112 80 -157 58 -67 133 -164 147 -191 6 -11 13 -42 17 -70 3
-27 22 -117 40 -200 47 -203 57 -259 63 -332 5 -59 4 -64 -25 -93 -36 -36 -41
-36 -76 -9 -36 28 -68 94 -127 263 -90 255 -119 322 -165 373 -29 32 -42 41
-39 28 2 -11 9 -60 15 -110 13 -107 3 -155 -59 -286 -22 -47 -43 -98 -46 -114
-9 -39 -47 -105 -74 -129 -11 -10 -43 -65 -70 -122 -53 -111 -78 -135 -105
-105 -66 73 -74 174 -22 275 19 35 31 67 28 70 -3 3 1 6 8 6 7 0 10 3 7 7 -4
3 -2 12 3 19 6 6 10 16 9 20 -1 5 0 16 3 24 53 143 66 208 67 335 1 174 -14
190 -26 27 -10 -144 0 -123 -122 -260 -31 -35 -74 -84 -96 -109 -22 -25 -59
-54 -82 -64 -30 -13 -48 -29 -62 -58 -51 -98 -147 -93 -166 10 -10 52 11 92
97 186 42 45 88 104 103 130 16 26 40 64 55 83 44 57 44 67 2 73 -20 2 -40 2
-44 0 -4 -2 -22 -31 -40 -65 -29 -54 -43 -68 -121 -120 -108 -70 -158 -87
-194 -63 -39 26 -26 74 37 144 28 31 67 81 87 111 20 30 49 72 65 92 22 28 32
57 43 123 14 87 12 106 -19 177 -8 20 -25 77 -36 126 -11 49 -43 154 -71 233
-100 281 -100 284 -101 408 -1 146 -18 182 -137 305 -83 85 -315 296 -327 296
-10 0 -53 -107 -78 -194 -55 -192 -72 -388 -87 -1041 -13 -533 -6 -2094 11
-2410 24 -465 69 -667 197 -890 208 -362 523 -596 953 -710 189 -49 310 -65
545 -72 328 -9 573 22 815 103 122 40 330 138 330 154 0 6 -26 46 -58 88 -79
105 -127 177 -202 302 -34 58 -97 155 -140 215 -42 61 -101 153 -130 205 -54
96 -152 246 -174 265 -6 6 -15 18 -21 26 -14 22 -127 173 -135 179 -16 14
-104 138 -112 160 -15 40 -29 112 -28 147 0 17 -4 34 -9 38 -6 3 -8 12 -5 20
3 8 2 20 -2 27 -4 7 -9 19 -10 28 -2 8 -22 92 -45 185 -37 153 -42 184 -43
305 -2 123 -6 150 -46 309 l-44 173 29 24 c41 33 77 30 120 -7 45 -40 59 -66
83 -163 11 -43 22 -80 25 -82 2 -2 44 36 92 86 98 99 115 106 164 64 47 -40
43 -83 -18 -162 -81 -107 -129 -195 -126 -231 4 -43 20 -60 43 -43 65 46 111
65 200 84 l99 22 -1 52 c-1 45 3 57 28 83 24 25 38 31 71 31 74 0 108 -43 150
-185 15 -50 28 -99 30 -110 24 -133 62 -265 104 -363 27 -64 55 -135 60 -157
6 -22 11 -116 11 -209 0 -196 11 -251 73 -371 32 -61 68 -107 152 -195 60 -63
154 -166 209 -227 54 -62 103 -110 107 -107 16 9 75 135 107 225 103 292 116
535 116 2109 0 1145 -5 1428 -35 1725 -21 212 -67 377 -154 543 -235 451 -650
722 -1235 807 -125 19 -488 27 -617 15z"/>
<path d="M5707 14133 c-4 -3 -7 -1344 -7 -2980 l0 -2973 650 0 650 0 0 1316
c0 1041 3 1315 12 1312 7 -3 23 -38 35 -79 31 -105 330 -1112 488 -1639 73
-245 163 -550 200 -677 l68 -233 679 0 678 0 0 2980 0 2980 -645 0 -645 0 0
-1316 c0 -1048 -3 -1315 -12 -1312 -7 3 -61 153 -119 334 -58 181 -191 590
-294 909 -103 319 -245 756 -314 970 -69 215 -130 396 -134 403 -6 9 -147 12
-646 12 -351 0 -641 -3 -644 -7z"/>
<path d="M9790 11160 l0 -2980 1345 0 1345 0 -2 593 -3 592 -567 3 -568 2 0
655 0 655 480 0 480 0 0 570 0 570 -480 0 -480 0 0 565 0 565 515 0 515 0 -2
593 -3 592 -1287 3 -1288 2 0 -2980z"/>
<path d="M3842 10392 c-63 -27 -158 -89 -150 -98 3 -2 22 3 43 12 21 9 71 18
111 21 69 6 72 5 89 -21 26 -39 13 -71 -43 -102 -26 -15 -49 -29 -52 -31 -3
-3 6 -13 20 -23 25 -20 66 -25 107 -14 25 7 25 7 -1 139 -7 39 -17 87 -20 108
-8 45 -17 46 -104 9z"/>
<path d="M12728 8043 c-20 -49 -65 -154 -101 -235 -35 -81 -68 -160 -72 -175
-3 -15 -51 -118 -105 -228 -122 -247 -267 -491 -452 -758 -38 -53 -68 -100
-68 -104 0 -11 -133 -181 -311 -399 -128 -158 -266 -337 -309 -401 -18 -27
-212 -289 -239 -323 l-19 -24 -68 59 c-55 49 -235 203 -294 252 -8 7 -64 52
-125 100 -171 136 -458 374 -480 398 -26 28 -105 91 -175 140 -65 46 -348 283
-405 340 -22 22 -119 111 -215 197 -181 161 -360 338 -427 420 -34 42 -146
168 -242 274 -21 22 -71 83 -113 135 -41 51 -86 103 -98 114 l-23 20 10 -20
c6 -11 18 -54 27 -95 31 -141 153 -461 253 -665 63 -128 291 -526 370 -646
243 -368 610 -953 771 -1230 141 -243 162 -288 282 -609 109 -289 168 -630
156 -890 -11 -212 -35 -538 -46 -615 -5 -38 -17 -124 -25 -190 -9 -67 -27
-166 -39 -220 -13 -55 -47 -199 -75 -320 -56 -242 -62 -265 -161 -635 -37
-140 -80 -288 -94 -327 -35 -95 -151 -541 -186 -717 -38 -186 -66 -412 -63
-516 3 -107 9 -125 30 -85 8 17 46 86 83 155 38 69 110 213 160 320 50 107
107 227 125 265 19 39 75 162 125 275 51 113 119 259 152 325 33 66 109 228
170 360 61 132 119 252 130 267 17 24 48 92 125 273 14 33 70 146 123 250 54
105 134 273 178 375 44 102 102 232 129 290 51 106 173 409 173 427 0 6 25 69
55 141 30 73 82 203 114 289 32 87 75 198 96 247 20 49 65 174 100 277 35 104
111 308 169 453 59 145 106 270 106 277 0 8 34 95 76 194 42 99 109 259 149
355 40 96 132 317 204 490 158 378 187 461 302 860 38 132 99 441 124 635 15
112 19 265 7 265 -4 0 -24 -39 -44 -87z"/>
<path d="M10739 7156 c-101 -35 -175 -82 -260 -163 -122 -117 -175 -236 -186
-418 -7 -125 5 -183 61 -300 92 -189 257 -317 460 -359 141 -29 254 -14 395
54 166 80 313 269 346 446 31 159 15 277 -55 419 -31 64 -56 97 -127 166 -138
134 -252 179 -458 179 -90 0 -122 -5 -176 -24z"/>
<path d="M1540 3879 l0 -2980 1193 4 c1254 4 1309 6 1530 52 334 69 569 229
690 470 57 115 92 270 118 535 17 161 25 3080 10 3430 -18 420 -46 590 -121
756 -96 213 -302 418 -513 513 -358 161 -818 200 -2364 201 l-543 0 0 -2981z
m1801 1922 c104 -33 156 -94 182 -218 9 -44 12 -431 12 -1643 0 -1459 -1
-1593 -17 -1688 -10 -57 -23 -122 -30 -145 -18 -59 -81 -120 -151 -146 -63
-23 -243 -48 -270 -38 -16 6 -17 152 -17 1958 l0 1952 113 -6 c68 -4 138 -14
178 -26z"/>
<path d="M6115 6850 c-7 -11 -96 -664 -220 -1610 -47 -360 -121 -920 -165
-1245 -44 -324 -122 -916 -175 -1315 -52 -399 -127 -958 -165 -1244 -39 -285
-70 -522 -70 -527 0 -5 346 -9 799 -9 l798 0 6 43 c3 23 25 264 48 535 l43
492 278 0 c153 0 278 -1 278 -2 0 -2 18 -232 40 -513 22 -280 40 -520 40 -532
l0 -23 790 0 790 0 0 23 c0 12 -29 213 -64 447 -35 234 -103 686 -151 1005
-47 319 -125 834 -171 1145 -47 311 -125 837 -175 1170 -49 333 -132 889 -184
1235 -53 347 -105 698 -118 780 l-22 150 -1112 3 c-708 1 -1114 -1 -1118 -8z
m1189 -1462 c4 -29 15 -165 26 -303 57 -696 170 -1870 196 -2022 l5 -33 -270
0 -270 0 5 33 c2 17 11 111 19 207 38 428 226 1977 261 2143 9 43 22 32 28
-25z"/>
</g>
</svg>
